<svg width="122" height="122" viewBox="0 0 122 122" fill="none" xmlns="http://www.w3.org/2000/svg">
<g clip-path="url(#clip0_5_2)">
<path d="M122 122L122 0L0 0L0 122L122 122Z" fill="url(#paint0_linear_5_2)"/>
<path d="M77.232 39.312V71.496C77.232 77.688 75.6 82.464 72.336 85.824C69.12 89.136 64.488 90.792 58.44 90.792C54.072 90.792 50.52 89.952 47.784 88.272C45.096 86.544 43.2 84.216 42.096 81.288C41.04 78.312 40.824 74.928 41.448 71.136L50.88 69.264C50.496 73.488 50.88 76.632 52.032 78.696C53.184 80.76 55.488 81.792 58.944 81.792C61.392 81.792 63.216 81.264 64.416 80.208C65.664 79.152 66.48 77.736 66.864 75.96C67.296 74.184 67.512 72.216 67.512 70.056V39.312H77.232Z" fill="#FCFAF3"/>
</g>
<defs>
<linearGradient id="paint0_linear_5_2" x1="122" y1="0" x2="122" y2="122" gradientUnits="userSpaceOnUse">
<stop stop-color="#2C3259"/>
<stop offset="0.33617" stop-color="#3B4170"/>
<stop offset="0.689362" stop-color="#485184"/>
<stop offset="1" stop-color="#565E90"/>
</linearGradient>
<clipPath id="clip0_5_2">
<rect width="122" height="122" fill="white"/>
</clipPath>
</defs>
</svg>
