<svg width="100%" height="100%" fill="none" viewBox="0 0 188 13" xmlns="http://www.w3.org/2000/svg">
<path d="M1.57455 3.36013C3.50313 1.95889 8.71552 2.07943 13.9279 2.01916C22.3198 1.91369 30.7118 1.83835 39.1037 1.77809C55.8876 1.67262 72.6715 1.64248 89.4553 1.68768C105.666 1.71782 121.876 1.58221 138.035 1.28087C146.114 1.1302 154.193 0.91926 162.272 0.678187C167.693 0.512448 175.095 -0.436779 180.359 0.241241C183.643 0.66312 185.467 2.1849 186.041 3.11906C186.718 4.23403 187.396 5.34899 187.813 6.47903C188.334 7.92547 187.969 9.46231 184.06 10.517C178.014 12.1292 167.068 11.8429 159.405 12.084C123.492 13.214 87.0576 13.1839 50.9879 12.6113C40.3547 12.4456 29.6693 12.3853 19.036 12.1443C11.6866 11.9785 0.427846 12.0539 0.062979 9.20617C-0.145516 7.51866 0.167201 5.7558 0.949058 4.08336C1.05331 3.79708 1.31393 3.57107 1.57455 3.36013ZM166.286 9.56778C166.234 9.53765 166.182 9.52258 166.129 9.49245C165.973 9.52258 165.817 9.55272 165.66 9.58285C165.869 9.58285 166.077 9.58285 166.286 9.56778Z" fill="#EAD637"/>
</svg>
