<svg width="24" height="24" viewBox="0 0 24 24" fill="none" xmlns="http://www.w3.org/2000/svg">
<path d="M11.9682 22.5468C6.20137 22.5468 1.4834 17.8185 1.4834 12.0398C1.4834 6.26101 6.20137 1.53296 11.9682 1.53296C17.735 1.53296 22.4529 6.26101 22.4529 12.0398C22.4529 17.8185 17.7347 22.5468 11.9682 22.5468ZM15.3514 20.1001C17.4468 19.2028 19.1148 17.5309 20.0072 15.4333C20.4612 14.3595 20.6951 13.2056 20.6951 12.0398C20.6951 10.874 20.4612 9.72001 20.0072 8.64624C19.115 6.54851 17.447 4.87651 15.3514 3.97937C14.2816 3.52496 13.1312 3.29076 11.9689 3.29076C10.8066 3.29076 9.65617 3.52496 8.58637 3.97937C6.49009 4.87603 4.82144 6.54812 3.9291 8.64624C3.47513 9.72001 3.24122 10.874 3.24122 12.0398C3.24122 13.2056 3.47513 14.3595 3.9291 15.4333C4.82138 17.5311 6.48974 19.2031 8.58566 20.0999C9.65548 20.5542 10.8059 20.7884 11.9682 20.7884C13.1305 20.7884 14.2808 20.5542 15.3507 20.0999L15.3514 20.1001Z" fill="#EA580C"/>
<path d="M11.1094 14.6367V6.71484C11.1094 6.12891 11.4023 5.83594 11.9883 5.83594C12.5742 5.83594 12.8672 6.12891 12.8672 6.71484V14.6367C12.8672 15.2227 12.5742 15.5156 11.9883 15.5156C11.4023 15.5156 11.1094 15.2227 11.1094 14.6367ZM11.1797 17.3789C11.1797 17.612 11.2723 17.8356 11.4371 18.0004C11.6019 18.1652 11.8255 18.2578 12.0586 18.2578C12.2917 18.2578 12.5152 18.1652 12.6801 18.0004C12.8449 17.8356 12.9375 17.612 12.9375 17.3789C12.9375 17.1458 12.8449 16.9223 12.6801 16.7574C12.5152 16.5926 12.2917 16.5 12.0586 16.5C11.8255 16.5 11.6019 16.5926 11.4371 16.7574C11.2723 16.9223 11.1797 17.1458 11.1797 17.3789Z" fill="#EA580C"/>
</svg>
