<svg width="65" height="77" viewBox="0 0 65 77" fill="none" xmlns="http://www.w3.org/2000/svg">
    <path d="M21.345 66.397C10.05 61.827 2.75 50.917 2.75 38.6c0-16.141 12.69-29.33 28.5-29.894l-4.274 4.832a1.25 1.25 0 0 0 .096 1.75 1.212 1.212 0 0 0 1.728-.097l6.124-6.925a1.25 1.25 0 0 0-.06-1.716L28.738.549a1.212 1.212 0 0 0-1.73.029 1.25 1.25 0 0 0 .028 1.751l3.986 3.905C13.97 6.918.303 21.17.303 38.6c0 13.336 7.903 25.15 20.134 30.098a1.216 1.216 0 0 0 1.59-.691 1.244 1.244 0 0 0-.682-1.61zM64.303 38.6c0-13.203-7.796-24.972-19.861-29.985a1.22 1.22 0 0 0-1.597.677 1.244 1.244 0 0 0 .667 1.616C54.656 15.537 61.856 26.407 61.856 38.6c0 16.364-13.043 29.693-29.154 29.911l3.719-4.374c.441-.519.384-1.3-.13-1.747a1.21 1.21 0 0 0-1.724.13l-5.469 6.432a1.25 1.25 0 0 0 .116 1.736l6.692 6a1.21 1.21 0 0 0 1.728-.105 1.25 1.25 0 0 0-.105-1.749l-4.304-3.859c17.219-.497 31.078-14.824 31.078-32.375z" />
    <path d="M28.25 53.126 51.496 30.83a1.24 1.24 0 0 0 .38-.825c.01-.17.217-4.198-2.466-7.116-1.717-1.867-4.175-2.832-7.305-2.868a1.2 1.2 0 0 0-.856.34L18.003 42.656a1.242 1.242 0 0 0-.352.627l-2.5 11.202c-.093.414.03.848.328 1.149a1.216 1.216 0 0 0 1.135.332l11.065-2.53c.087-.021.17-.057.25-.096.015-.007.031-.01.045-.017.1-.052.194-.118.276-.197zm14.312-30.614c2.19.11 3.884.799 5.042 2.049 1.521 1.641 1.785 3.886 1.825 4.838L28.18 49.779c-1.213-3.883-4.507-5.921-6.916-6.84l21.297-20.427zm-22.797 22.54c1.826.559 5.458 2.166 6.277 6.217l-8.078 1.848 1.8-8.066z" />
</svg>
