<svg width="80" height="80" viewBox="0 0 80 80" xmlns="http://www.w3.org/2000/svg">
    <path d="M40.839 28.291a5.783 5.783 0 0 0-4.07 1.678 5.639 5.639 0 0 0-1.667 4.032 5.626 5.626 0 0 0 1.06 3.201 5.74 5.74 0 0 0 2.711 2.044 5.626 5.626 0 0 0 1.966.35c.496-.002.99-.066 1.469-.193a6.05 6.05 0 0 0 1.302-.533 5.66 5.66 0 0 0 2.825-3.906 5.603 5.603 0 0 0-1.23-4.644 5.756 5.756 0 0 0-4.402-2.037l.036.008zm1.168 8.463a3.07 3.07 0 0 1-1.168.237 3.1 3.1 0 0 1-2.189-.893 3.023 3.023 0 0 1-.9-2.162 3.02 3.02 0 0 1 .918-2.155 3.101 3.101 0 0 1 2.195-.875c.82.008 1.604.34 2.176.921a3.02 3.02 0 0 1 .871 2.174 2.863 2.863 0 0 1-.177.873 3.03 3.03 0 0 1-1.726 1.88z" />
    <path d="M72.454 45.13a7.549 7.549 0 0 0-6.405 3.544l-9.456-3.7c.884-2.818.994-5.816.32-8.69a16.581 16.581 0 0 0-4.162-7.661l8.714-9.467a7.656 7.656 0 0 0 7.176.485 7.491 7.491 0 0 0 4.35-5.657 7.424 7.424 0 0 0-2.401-6.696 7.643 7.643 0 0 0-6.986-1.694 7.535 7.535 0 0 0-5.268 4.838 7.402 7.402 0 0 0 1.203 7.003l-8.767 9.467a16.94 16.94 0 0 0-10.75-3.542 16.925 16.925 0 0 0-10.583 4.006l-15.757-15.68a7.348 7.348 0 0 0 .828-7.001A7.495 7.495 0 0 0 9.041.154a7.584 7.584 0 0 0-6.838 2.021A7.367 7.367 0 0 0 .155 8.93a7.453 7.453 0 0 0 4.589 5.4 7.602 7.602 0 0 0 7.09-.818l15.79 15.654a16.46 16.46 0 0 0-2.448 3.786l-5.281-1.962c.09-.454.137-.915.14-1.377a7.451 7.451 0 0 0-3.193-6.135 7.652 7.652 0 0 0-6.918-.946 7.517 7.517 0 0 0-4.76 5.048 7.406 7.406 0 0 0 1.448 6.748 7.616 7.616 0 0 0 6.423 2.707 7.587 7.587 0 0 0 5.936-3.635l5.23 1.97a16.297 16.297 0 0 0 2.613 14.553L16.462 58.83a7.64 7.64 0 0 0-7.065-1.263 7.512 7.512 0 0 0-4.95 5.134 7.401 7.401 0 0 0 1.622 6.906 7.615 7.615 0 0 0 6.733 2.458 7.556 7.556 0 0 0 5.78-4.203 7.389 7.389 0 0 0-.378-7.079l10.353-8.899c.455.44.934.854 1.438 1.24l.113.111c.192.147.401.276.593.413l.418.293c.323.206.654.404.985.585l.366.215c.392.206.784.387 1.194.568l.227.147c.501.212 1.013.398 1.534.56.479.146.967.266 1.463.37l.4.077c.384.069.759.129 1.142.172l.453.052c.505.043 1.02.077 1.542.077.54 0 1.064 0 1.595-.086l.549-.069c.34-.043.671-.086 1.01-.146l.628-.138.872-.224h.096l3.887 10.103h.001a7.415 7.415 0 0 0-3.63 5.828 7.382 7.382 0 0 0 2.733 6.285 7.591 7.591 0 0 0 6.778 1.412 7.483 7.483 0 0 0 5.072-4.66 7.35 7.35 0 0 0-.94-6.78 7.55 7.55 0 0 0-7.573-3.005l-3.86-10.164.47-.24.523-.267c.313-.172.618-.361.924-.56.139-.085.279-.163.418-.258.313-.215.619-.447.924-.688.113-.086.227-.163.34-.258l.148-.112.122-.129a16.867 16.867 0 0 0 4.095-5.267l9.473 3.709a7.397 7.397 0 0 0 2.037 6.773 7.585 7.585 0 0 0 5.33 2.194 7.588 7.588 0 0 0 5.339-2.174A7.398 7.398 0 0 0 80 52.576a7.398 7.398 0 0 0-2.21-5.269 7.585 7.585 0 0 0-5.337-2.178h.001zM60.62 12.863a4.828 4.828 0 0 1 1.705-3.702 4.956 4.956 0 0 1 3.958-1.121 4.92 4.92 0 0 1 3.433 2.245 4.801 4.801 0 0 1 .498 4.037 4.878 4.878 0 0 1-2.786 2.994 4.973 4.973 0 0 1-6.05-1.87 4.777 4.777 0 0 1-.758-2.582zm-53.09-.593a4.996 4.996 0 0 1-4.099-2.077 4.864 4.864 0 0 1-.616-4.51A4.953 4.953 0 0 1 6.21 2.61a5.024 5.024 0 0 1 4.496.994 4.883 4.883 0 0 1 1.743 4.212 4.91 4.91 0 0 1-2.505 3.819 4.9 4.9 0 0 1-2.414.637zm4.942 22.203a4.957 4.957 0 0 1-3.485-1.427 4.832 4.832 0 0 1-1.44-3.444A4.833 4.833 0 0 1 9 26.164a4.954 4.954 0 0 1 3.49-1.415 4.956 4.956 0 0 1 3.48 1.44 4.832 4.832 0 0 1 1.427 3.448c.008.15.008.299 0 .448a4.85 4.85 0 0 1-1.586 3.141 4.97 4.97 0 0 1-3.312 1.274l-.026-.026zm4.148 30.12a4.833 4.833 0 0 1-1.801 3.75 4.961 4.961 0 0 1-4.077 1.004 4.911 4.911 0 0 1-3.373-2.474 4.8 4.8 0 0 1-.205-4.144 4.895 4.895 0 0 1 3.112-2.787 4.97 4.97 0 0 1 4.157.607 4.963 4.963 0 0 1 1.743 1.953c.302.657.454 1.371.444 2.092zm35.86 3.09a5.035 5.035 0 0 1 4.667 2.613 4.911 4.911 0 0 1-.116 4.897 5.041 5.041 0 0 1-4.315 2.416 5.04 5.04 0 0 1-4.315-2.416 4.913 4.913 0 0 1-.117-4.897 5.034 5.034 0 0 1 4.196-2.613zm-3.773-16.195-.436.31c-.227.146-.47.283-.706.42-.235.138-.313.19-.479.276l-.174.078v-2.358a1.3 1.3 0 0 0-1.656-1.24c-.546.171-.914.675-.906 1.24v3.373h-.053c-.296.078-.584.164-.871.224l-.28.052c-.322.06-.653.103-.984.146h-.366c-.384 0-.784.052-1.176.06h-.366c-.366 0-.741 0-1.098-.051h-.183a14.917 14.917 0 0 1-1.238-.18l-.261-.061-.35-.043v-3.52c0-.713-.584-1.291-1.306-1.291-.722 0-1.307.578-1.307 1.29v2.66c-.2-.095-.4-.18-.593-.284l-.383-.198a8.826 8.826 0 0 1-.784-.465l-.384-.24-.148-.112v-6.231l.06-.043a15.188 15.188 0 0 1 5.918-1.644 22.2 22.2 0 0 1 2.187-.129h.245c.873.003 1.746.052 2.614.146 2.094.133 4.137.698 5.995 1.662v5.817l-.531.336zm3.137-3.004v-3.442c0-2.487-5.96-3.907-10.457-4.053h-1.943c-.759 0-1.543.112-2.336.215-3.756.525-7.469 1.833-7.469 3.812v4.2c-.27-.31-.522-.637-.767-.964a13.742 13.742 0 0 1-2.16-11.954c.234-.831.543-1.64.923-2.418 2.138-4.217 6.27-7.1 11.01-7.679 4.74-.58 9.46 1.221 12.575 4.797a13.966 13.966 0 0 1 2.925 12.994 13.713 13.713 0 0 1-2.3 4.492zm20.61 8.916a4.956 4.956 0 0 1-3.473-1.425 4.833 4.833 0 0 1-1.442-3.429c-.01-.175-.01-.35 0-.525a4.864 4.864 0 0 1 .976-2.4 4.94 4.94 0 0 1 4.378-1.944 4.915 4.915 0 0 1 3.968 2.668 4.801 4.801 0 0 1-.227 4.735 4.93 4.93 0 0 1-4.206 2.285l.026.035z" />
</svg>
