<svg width="22" height="25" viewBox="0 0 22 25" fill="none" xmlns="http://www.w3.org/2000/svg">
    <g clip-path="url(#bh017l946a)">
        <path d="M2.006.96C.98.96.128 1.806.128 2.827v20.266c0 1.02.851 1.867 1.878 1.867h15.561c1.027 0 1.878-.847 1.878-1.867v-6.175L22.07 6.91a1.796 1.796 0 0 0-1.25-2.184l-1.375-.383V2.826c0-1.02-.851-1.866-1.878-1.866H2.007zm0 1.6h15.561c.163 0 .268.105.268.267v20.266c0 .162-.105.267-.268.267H2.007c-.164 0-.27-.105-.27-.267V2.827c0-.162.106-.267.27-.267zM3.8 3.627a.797.797 0 0 0-.721.8v3.2a.807.807 0 0 0 .805.8H15.69a.807.807 0 0 0 .805-.8v-3.2a.807.807 0 0 0-.805-.8H3.884a.792.792 0 0 0-.084 0zm.89 1.6h10.194v1.6H4.69v-1.6zm14.755.783.94.259h.008c.089.024.148.12.117.241l-1.065 4.075V6.01zM3.8 12.693a.81.81 0 0 0-.557.264.798.798 0 0 0 .06 1.132.808.808 0 0 0 .581.204h4.561a.808.808 0 0 0 .577-.23.798.798 0 0 0-.577-1.37h-4.56a.837.837 0 0 0-.085 0zm7.244 0a.81.81 0 0 0-.557.264.798.798 0 0 0 .06 1.132.808.808 0 0 0 .581.204h4.561a.808.808 0 0 0 .577-.23.798.798 0 0 0-.577-1.37h-4.56a.837.837 0 0 0-.085 0zM3.8 15.36a.809.809 0 0 0-.557.264.798.798 0 0 0 .06 1.131.808.808 0 0 0 .581.205h4.561a.798.798 0 1 0 0-1.6h-4.56a.902.902 0 0 0-.085 0zm7.244 0a.809.809 0 0 0-.557.264.798.798 0 0 0 .06 1.131.808.808 0 0 0 .581.205h4.561a.809.809 0 0 0 .577-.23.798.798 0 0 0-.577-1.37h-4.56a.9.9 0 0 0-.085 0zM3.8 18.027a.809.809 0 0 0-.557.263.799.799 0 0 0 .06 1.132.808.808 0 0 0 .581.205H15.69a.808.808 0 0 0 .577-.23.797.797 0 0 0 0-1.14.808.808 0 0 0-.577-.23H3.884a.902.902 0 0 0-.084 0zm0 2.666a.809.809 0 0 0-.557.264.798.798 0 0 0 .06 1.131.808.808 0 0 0 .581.205H15.69a.809.809 0 0 0 .577-.23.797.797 0 0 0 0-1.14.808.808 0 0 0-.577-.23H3.884a.902.902 0 0 0-.084 0z" />
    </g>
    <defs>
        <clipPath id="bh017l946a">
            <path fill="#fff" d="M0 0h22v25H0z"/>
        </clipPath>
    </defs>
</svg>
