<svg width="41" height="48" viewBox="0 0 41 48" fill="none" xmlns="http://www.w3.org/2000/svg">
    <path d="M13.454 41.373c-7.06-2.856-11.622-9.675-11.622-17.372 0-10.089 7.932-18.332 17.813-18.684l-2.671 3.02a.781.781 0 0 0 .06 1.093.755.755 0 0 0 1.08-.06l3.827-4.328a.782.782 0 0 0-.038-1.073L18.075.22a.758.758 0 0 0-1.081.017.781.781 0 0 0 .018 1.095l2.49 2.44C8.846 4.2.303 13.108.303 24.002c0 8.334 4.94 15.718 12.585 18.81a.759.759 0 0 0 .994-.431.778.778 0 0 0-.427-1.007zM40.303 24c0-8.251-4.873-15.607-12.413-18.74a.762.762 0 0 0-.998.423.777.777 0 0 0 .416 1.01C34.273 9.586 38.773 16.38 38.773 24c0 10.227-8.151 18.558-18.22 18.694l2.324-2.734a.78.78 0 0 0-.081-1.092.756.756 0 0 0-1.078.082L18.3 42.97a.781.781 0 0 0 .072 1.084l4.183 3.75a.757.757 0 0 0 1.08-.065c.28-.32.25-.81-.066-1.093l-2.69-2.412c10.762-.311 19.424-9.265 19.424-20.234z" fill="#000"/>
    <path d="m17.77 33.079 14.528-13.936a.775.775 0 0 0 .238-.515c.006-.107.136-2.624-1.542-4.448-1.073-1.167-2.609-1.77-4.565-1.792a.75.75 0 0 0-.535.212L11.366 26.535a.775.775 0 0 0-.22.392l-1.564 7.001a.78.78 0 0 0 .206.718.76.76 0 0 0 .71.208l6.915-1.582a.759.759 0 0 0 .156-.06c.01-.004.02-.005.028-.01a.756.756 0 0 0 .173-.123zm8.945-19.134c1.369.069 2.427.5 3.151 1.28.95 1.026 1.116 2.43 1.14 3.024l-13.28 12.738c-.757-2.427-2.816-3.701-4.322-4.275l13.31-12.767zM12.466 28.032c1.142.35 3.412 1.354 3.924 3.886l-5.05 1.155 1.126-5.04z" />
</svg>
