<svg width="97" height="116" viewBox="0 0 97 116" fill="none" xmlns="http://www.w3.org/2000/svg">
    <path d="M31.866 99.295C14.921 92.44 3.973 76.075 3.973 57.6c0-24.212 19.037-43.995 42.751-44.841l-6.41 7.248a1.875 1.875 0 0 0 .142 2.624 1.819 1.819 0 0 0 2.591-.145l9.188-10.387a1.875 1.875 0 0 0-.092-2.574L42.956.523a1.819 1.819 0 0 0-2.594.043 1.874 1.874 0 0 0 .042 2.628l5.979 5.857C20.803 10.076.303 31.455.303 57.601c0 20.002 11.855 37.724 30.202 45.145.224.09.453.133.68.133.728 0 1.418-.442 1.705-1.169a1.866 1.866 0 0 0-1.024-2.415zM96.303 57.6c0-19.804-11.694-37.459-29.792-44.977a1.828 1.828 0 0 0-2.394 1.014 1.865 1.865 0 0 0 1 2.424c16.715 6.944 27.515 23.249 27.515 41.54 0 24.544-19.563 44.539-43.73 44.866l5.578-6.563a1.873 1.873 0 0 0-.193-2.62 1.815 1.815 0 0 0-2.588.196l-8.203 9.648c-.654.77-.577 1.93.174 2.603l10.038 9.002a1.82 1.82 0 0 0 2.591-.159c.672-.768.6-1.942-.157-2.623l-6.455-5.788c25.827-.747 46.616-22.236 46.616-48.563z" />
    <path d="m42.224 79.389 34.868-33.445a1.86 1.86 0 0 0 .57-1.238c.016-.255.326-6.297-3.699-10.675-2.575-2.8-6.262-4.247-10.957-4.3a1.8 1.8 0 0 0-1.284.508L26.854 63.684c-.265.253-.448.58-.529.94l-3.75 16.803a1.873 1.873 0 0 0 .492 1.723 1.824 1.824 0 0 0 1.703.5l16.597-3.798c.131-.03.255-.084.376-.142.022-.01.046-.014.067-.025.15-.08.29-.178.413-.296zm21.468-45.921c3.285.165 5.826 1.198 7.563 3.073 2.282 2.462 2.678 5.829 2.737 7.257L42.12 74.368c-1.819-5.824-6.76-8.882-10.373-10.258l31.945-30.642zM29.496 67.277c2.74.838 8.187 3.25 9.415 9.327l-12.116 2.771 2.7-12.098z" />
</svg>
