<svg width="100" height="92" viewBox="0 0 100 92" xmlns="http://www.w3.org/2000/svg">
    <path d="M99.03 8.805 83.102 1.028C82.55.75 81.994.75 81.44 1.166c-.553.278-.83.834-.83 1.528v15.417l-.001 5.693c-3.325.834-5.817 3.75-5.817 7.361 0 3.611 2.492 6.667 5.817 7.361v11.806c-3.325.834-5.817 3.75-5.817 7.361 0 3.611 2.492 6.667 5.817 7.362V76.86c-2.77.695-4.986 2.918-5.68 5.695H64.82c-.83-3.334-3.74-5.833-7.34-5.833-3.601 0-6.648 2.5-7.34 5.833H40.027c-.831-3.334-3.74-5.833-7.34-5.833-3.602 0-6.649 2.5-7.342 5.833h-10.11c-.693-2.777-2.909-5-5.679-5.695V65.055c2.77-.695 4.986-2.918 5.679-5.695h9.833c.831 3.334 3.74 5.834 7.34 5.834 3.602 0 6.649-2.5 7.342-5.833H50c.83 3.333 3.74 5.833 7.34 5.833 4.156 0 7.618-3.472 7.618-7.639 0-3.61-2.492-6.666-5.817-7.361V38.388c3.325-.833 5.817-3.75 5.817-7.361 0-4.167-3.462-7.64-7.617-7.64-3.601 0-6.648 2.5-7.341 5.834H39.89c-.831-3.333-3.74-5.833-7.341-5.833s-6.648 2.5-7.34 5.833H15.097c-.693-2.777-2.91-5-5.68-5.694V18.11l14.96-7.223c.553-.277.97-.833.97-1.527 0-.695-.416-1.25-.97-1.528L8.447.194c-.553-.278-1.107-.278-1.66.138-.554.278-.832.834-.832 1.528v21.944c-3.325.834-5.818 3.75-5.818 7.362 0 4.166 3.463 7.638 7.618 7.638 3.601 0 6.648-2.499 7.34-5.833h9.973c.83 3.334 3.74 5.834 7.34 5.834 3.601 0 6.648-2.5 7.341-5.834H50c.692 2.778 2.909 5 5.678 5.695v11.806c-2.77.694-4.986 2.917-5.678 5.694H39.89c-.694-3.473-3.74-5.972-7.342-5.972-3.601 0-6.648 2.5-7.341 5.833h-10.11c-.831-3.333-3.878-5.833-7.48-5.833C3.464 50.194 0 53.666 0 57.833c0 3.61 2.493 6.666 5.817 7.36V77C2.493 77.833 0 80.75 0 84.36 0 88.529 3.463 92 7.618 92c3.6 0 6.648-2.5 7.34-5.833l10.11-.001c.832 3.333 3.74 5.833 7.342 5.833 3.6 0 6.647-2.5 7.34-5.833H50c.83 3.333 3.74 5.833 7.34 5.833 3.601 0 6.648-2.5 7.34-5.833h10.25c.831 3.333 3.74 5.833 7.341 5.833 4.155 0 7.618-3.472 7.618-7.639 0-3.61-2.493-6.666-5.817-7.361V65.193c3.324-.833 5.817-3.75 5.817-7.361 0-3.61-2.493-6.666-5.817-7.361V38.665c3.324-.833 5.817-3.75 5.817-7.361 0-3.61-2.493-6.666-5.817-7.361V19.36l14.958-7.223c.554-.278.97-.833.97-1.528-.001-.693-.416-1.527-.97-1.804zM9.418 4.638l10.25 5-10.25 5v-10zm1.94 28.334c-.693 1.389-2.078 2.36-3.74 2.36-2.217 0-4.156-1.805-4.156-4.166 0-1.667.97-3.056 2.355-3.75a3.674 3.674 0 0 1 1.661-.417c.554 0 1.247.138 1.662.416.831.417 1.662 1.112 2.077 2.083.278.555.416 1.111.416 1.667.14.695.002 1.251-.275 1.806zm24.93 0c-.693 1.389-2.077 2.36-3.74 2.36-1.662 0-3.047-.972-3.74-2.36a3.701 3.701 0 0 1-.415-1.667c0-.555.138-1.25.415-1.666.693-1.39 2.077-2.361 3.74-2.361 1.662 0 3.047.973 3.74 2.36a3.7 3.7 0 0 1 .415 1.667c0 .555-.138 1.111-.415 1.666zm17.452 0a3.701 3.701 0 0 1-.416-1.667c0-.555.138-1.25.416-1.666.692-1.39 2.077-2.361 3.74-2.361 2.216 0 4.155 1.806 4.155 4.167 0 1.666-.97 3.055-2.355 3.75a3.674 3.674 0 0 1-1.661.416c-.554 0-1.247-.138-1.662-.416-1.11-.696-1.802-1.39-2.217-2.224zm0 23.055c.415-.833 1.108-1.666 2.077-2.083a3.674 3.674 0 0 1 1.662-.416c.553 0 1.246.138 1.661.416 1.386.695 2.355 2.083 2.355 3.75 0 2.223-1.801 4.167-4.156 4.167-1.661 0-3.047-.972-3.74-2.36a3.701 3.701 0 0 1-.415-1.667c.14-.696.278-1.252.556-1.807zm-24.93 0c.692-1.39 2.076-2.36 3.74-2.36 1.66 0 3.046.972 3.739 2.36a3.7 3.7 0 0 1 .415 1.666c0 .556-.138 1.25-.415 1.667-.693 1.39-2.077 2.36-3.74 2.36-1.662 0-3.047-.972-3.74-2.36a3.701 3.701 0 0 1-.415-1.667c0-.555.138-1.11.415-1.666zM3.462 57.693c0-2.222 1.801-4.166 4.156-4.166 1.661 0 3.047.972 3.74 2.36.277.556.415 1.112.415 1.667 0 .555-.138 1.25-.416 1.666-.415.833-1.108 1.667-2.077 2.083a3.675 3.675 0 0 1-1.661.417c-.554 0-1.247-.139-1.662-.417-1.526-.414-2.495-1.804-2.495-3.61zm7.894 28.334c-.692 1.389-2.077 2.36-3.74 2.36-2.216 0-4.155-1.805-4.155-4.166 0-1.667.97-3.056 2.355-3.75a3.675 3.675 0 0 1 1.661-.417c.554 0 1.247.138 1.662.416.831.417 1.662 1.112 2.077 2.083.278.555.416 1.112.416 1.667.002.556.002 1.39-.275 1.806zm24.93 0c-.692 1.389-2.076 2.36-3.739 2.36-1.662 0-3.047-.972-3.74-2.36a3.701 3.701 0 0 1-.415-1.667c0-.555.138-1.25.415-1.666.693-1.39 2.077-2.361 3.74-2.361 1.662 0 3.047.972 3.74 2.36.277.556.415 1.112.415 1.667 0 .555-.138 1.25-.415 1.666zm24.931 0c-.692 1.389-2.077 2.36-3.74 2.36-1.661 0-3.047-.972-3.74-2.36a3.7 3.7 0 0 1-.415-1.667c0-.555.138-1.25.416-1.666.692-1.39 2.077-2.361 3.74-2.361 1.661 0 3.047.972 3.74 2.36.277.556.415 1.112.415 1.667 0 .555-.138 1.25-.416 1.666zm25.208-1.668c0 2.223-1.801 4.167-4.156 4.167-1.661 0-3.047-.973-3.74-2.36a3.701 3.701 0 0 1-.415-1.667c0-.555.138-1.25.416-1.667.415-.833 1.108-1.666 2.077-2.082a3.674 3.674 0 0 1 1.661-.417c.554 0 1.247.138 1.662.416 1.526.555 2.495 1.944 2.495 3.61zm0-26.666c0 1.666-.97 3.055-2.355 3.75a3.676 3.676 0 0 1-1.661.417c-.554 0-1.247-.139-1.662-.417-1.386-.695-2.355-2.083-2.355-3.75 0-1.667.97-3.056 2.355-3.75a3.674 3.674 0 0 1 1.662-.417c.553 0 1.246.138 1.661.417 1.386.694 2.355 2.083 2.355 3.75zm0-26.528c0 1.667-.97 3.056-2.355 3.75a3.674 3.674 0 0 1-1.661.417c-.554 0-1.247-.139-1.662-.417-1.386-.694-2.355-2.082-2.355-3.75 0-1.666.97-3.055 2.355-3.75a3.676 3.676 0 0 1 1.662-.417c.553 0 1.246.139 1.661.417 1.386.696 2.355 2.084 2.355 3.75zM84.07 15.332V5.471l10.25 5-10.25 4.861z" />
</svg>
